<?xml version="1.0" encoding="UTF-8"?>
<!DOCTYPE svg PUBLIC "-//W3C//DTD SVG 1.1//EN" "http://www.w3.org/Graphics/SVG/1.1/DTD/svg11.dtd">
<!-- Creator: CorelDRAW X7 -->
<svg xmlns="http://www.w3.org/2000/svg" xml:space="preserve" width="8.4116mm" height="8.5607mm" version="1.1" style="shape-rendering:geometricPrecision; text-rendering:geometricPrecision; image-rendering:optimizeQuality; fill-rule:evenodd; clip-rule:evenodd"
viewBox="0 0 5096 5186"
 xmlns:xlink="http://www.w3.org/1999/xlink">
 <defs>
  <style type="text/css">
   <![CDATA[
    .str1 {stroke:#332C2B;stroke-width:51.2489}
    .str0 {stroke:#332C2B;stroke-width:102.558}
    .str2 {stroke:#332C2B;stroke-width:121.156}
    .fil2 {fill:none}
    .fil1 {fill:#332C2B}
    .fil0 {fill:#332C2B;fill-rule:nonzero}
   ]]>
  </style>
 </defs>
 <g id="Layer_x0020_1">
  <metadata id="CorelCorpID_0Corel-Layer"/>
  <g id="_1766316816080">
   <path class="fil0 str0" d="M2299 3779c25,-219 94,-442 204,-654l0 0c105,-203 249,-396 431,-567l0 -1c307,-290 672,-470 1034,-536 372,-68 742,-16 1043,161l30 17 -4 35c-25,219 -93,441 -203,653 -106,203 -250,397 -431,568 -308,290 -673,470 -1035,536 -372,69 -741,16 -1042,-160l-30 -18 3 -34zm298 -605c-98,189 -161,386 -187,582 273,150 604,192 939,131 342,-63 688,-234 980,-510 173,-163 310,-346 410,-539 98,-189 161,-387 188,-582 -274,-149 -605,-192 -940,-131 -342,63 -688,234 -980,510l0 0c-172,163 -309,347 -410,539l0 0z"/>
   <path class="fil0 str1" d="M2185 3876c-27,-166 -89,-333 -181,-491l0 0c-89,-150 -207,-292 -352,-416l0 0c-247,-209 -533,-331 -812,-367 -287,-37 -567,18 -790,165l-22 14 4 26c28,167 89,334 182,491 89,151 207,293 352,416 247,209 533,332 812,368 287,37 567,-18 790,-165l22 -15 -5 -26zm-251 -449c82,140 138,288 166,436 -202,125 -453,171 -712,138 -263,-34 -535,-151 -769,-349 -138,-117 -250,-252 -335,-395 -82,-141 -138,-289 -166,-437 202,-125 453,-171 711,-138 264,34 536,151 770,349l0 0c138,118 250,252 335,396l0 0z"/>
   <path class="fil0 str0" d="M1707 1433c11,-141 -6,-289 -49,-436l0 0c-42,-140 -109,-279 -203,-409l0 0c-158,-220 -366,-377 -586,-463 -226,-87 -464,-99 -675,-24l-21 7 -2 22c-11,141 5,289 49,436 42,140 109,279 203,409 158,219 366,377 586,462 226,88 464,100 675,25l21 -7 2 -22zm-115 -416c39,130 55,262 48,388 -190,61 -403,48 -607,-31 -207,-81 -404,-230 -555,-439 -89,-123 -153,-255 -192,-389 -39,-130 -55,-262 -48,-388 190,-61 403,-48 606,31 208,81 405,230 556,439l0 0c88,123 153,255 192,389l0 0z"/>
   <polygon class="fil1 str2" points="2413,4940 2286,2781 1646,1395 2155,2774 2090,4938 2121,4940 697,4940 697,5125 4460,5125 4460,4940 "/>
   <line class="fil2 str1" x1="2043" y1="2430" x2="2596" y2= "1553" />
   <path class="fil0 str1" d="M2568 1596c10,-69 33,-138 70,-204l0 0c36,-62 83,-122 142,-174l0 0c100,-88 217,-141 331,-158 118,-17 234,3 327,62l9 5 -2 11c-10,69 -33,138 -70,204 -36,63 -83,122 -142,174 -100,88 -217,141 -331,158 -118,18 -234,-3 -327,-61l-9 -6 2 -11zm100 -187c-33,58 -55,120 -65,181 84,50 188,67 294,51 108,-16 219,-66 314,-150 56,-50 101,-106 134,-166 33,-58 55,-120 66,-181 -85,-50 -189,-67 -295,-51 -108,16 -219,67 -314,150l0 0c-56,50 -101,106 -134,166l0 0z"/>
   <path class="fil0 str1" d="M2332 906c46,14 91,38 132,71l0 0c40,31 75,70 104,117l1 0c49,78 72,164 72,245 -1,83 -28,161 -79,218l-5 6 -7 -2c-46,-15 -92,-39 -133,-72 -39,-31 -75,-70 -104,-117 -49,-78 -73,-164 -72,-245 1,-83 28,-161 79,-218l5 -6 7 3zm118 89c-37,-29 -77,-51 -118,-65 -43,53 -67,122 -67,197 -1,77 21,158 68,233 28,44 62,81 99,111 37,29 76,51 117,65 44,-53 67,-122 68,-197 1,-76 -21,-158 -68,-233l0 0c-28,-44 -62,-81 -99,-111l0 0z"/>
  </g>
 </g>
</svg>
