<?xml version="1.0" encoding="UTF-8"?>
<!DOCTYPE svg PUBLIC "-//W3C//DTD SVG 1.1//EN" "http://www.w3.org/Graphics/SVG/1.1/DTD/svg11.dtd">
<!-- Creator: CorelDRAW X7 -->
<svg xmlns="http://www.w3.org/2000/svg" xml:space="preserve" width="7.8808mm" height="8.1509mm" version="1.1" style="shape-rendering:geometricPrecision; text-rendering:geometricPrecision; image-rendering:optimizeQuality; fill-rule:evenodd; clip-rule:evenodd"
viewBox="0 0 224 232"
 xmlns:xlink="http://www.w3.org/1999/xlink">
 <defs>
  <style type="text/css">
   <![CDATA[
    .fil0 {fill:#332C2B;fill-rule:nonzero}
   ]]>
  </style>
 </defs>
 <g id="Layer_x0020_1">
  <metadata id="CorelCorpID_0Corel-Layer"/>
  <path class="fil0" d="M205 98l0 129c0,1 0,2 -1,3l0 0c-1,1 -3,2 -4,2l-176 0c-1,0 -3,-1 -4,-2 0,-1 -1,-2 -1,-3l0 -129 -14 13c-1,1 -3,1 -4,0l0 0c-1,-1 -1,-3 0,-4l109 -106 0 0 0 0 0 0c1,-1 3,-1 4,0l109 105c1,1 2,4 0,5l0 0c-1,1 -3,1 -4,0l-14 -13zm-93 -43c7,0 13,2 17,7l0 0c4,4 7,10 7,16 0,7 -3,13 -7,17 -4,5 -10,7 -17,7 -6,0 -12,-2 -17,-7l0 0c-4,-4 -7,-10 -7,-17 0,-6 3,-12 7,-16l0 0 0 0c5,-5 11,-7 17,-7zm13 11c-3,-4 -8,-6 -13,-6 -5,0 -10,2 -13,6l0 0c-3,3 -5,7 -5,12 0,5 2,10 5,13l0 0c3,4 8,6 13,6 5,0 10,-2 13,-6 3,-3 5,-8 5,-13 0,-5 -2,-9 -5,-12l0 0zm-36 74l46 0c3,0 6,1 8,3l0 0c2,2 3,5 3,8l0 75 54 0 0 -134 -88 -84 -87 85 0 133 53 0 0 -75c0,-3 1,-6 3,-8l0 0c2,-2 5,-3 8,-3zm51 86l0 -75c0,-2 0,-3 -1,-4l0 0c-1,-1 -2,-1 -4,-1l-46 0c-2,0 -3,0 -4,1l0 0c-1,1 -1,2 -1,4l0 75 56 0z"/>
 </g>
</svg>
