<?xml version="1.0" encoding="UTF-8"?>
<!DOCTYPE svg PUBLIC "-//W3C//DTD SVG 1.1//EN" "http://www.w3.org/Graphics/SVG/1.1/DTD/svg11.dtd">
<!-- Creator: CorelDRAW X7 -->
<svg xmlns="http://www.w3.org/2000/svg" xml:space="preserve" width="53.4746mm" height="15.1553mm" version="1.1" style="shape-rendering:geometricPrecision; text-rendering:geometricPrecision; image-rendering:optimizeQuality; fill-rule:evenodd; clip-rule:evenodd"
viewBox="0 0 2928 830"
 xmlns:xlink="http://www.w3.org/1999/xlink">
 <defs>
  <style type="text/css">
   <![CDATA[
    .fil2 {fill:#FDD100}
    .fil1 {fill:#CCCCCC}
    .fil0 {fill:url(#id0)}
   ]]>
  </style>
  <radialGradient id="id0" gradientUnits="userSpaceOnUse" gradientTransform="matrix(1.17224 -0.309686 0.315075 1.19263 -438 497)" cx="1842.21" cy="381.689" r="331.91" fx="1842.21" fy="381.689">
   <stop offset="0" style="stop-opacity:1; stop-color:#FFCC00"/>
   <stop offset="0.270588" style="stop-opacity:1; stop-color:#FBF4D6"/>
   <stop offset="0.2" style="stop-opacity:1; stop-color:#FEE57F"/>
   <stop offset="1" style="stop-opacity:1; stop-color:#FEFEFE"/>
  </radialGradient>
 </defs>
 <g id="Layer_x0020_1">
  <metadata id="CorelCorpID_0Corel-Layer"/>
  <g id="_1766426729936">
   <g>
    <path class="fil0" d="M1917 265c2,-44 -12,-91 -69,-125 -133,-79 -129,-100 -147,-136 -17,-37 -54,209 9,273 9,10 19,19 29,27 -34,-10 -75,-6 -118,27 -122,94 -140,83 -181,86 -40,3 175,127 257,93 13,-5 25,-11 36,-17 -24,33 -37,77 -13,134 61,142 45,157 38,197 -7,40 167,-137 155,-225 -2,-15 -5,-29 -9,-42 22,29 56,52 111,52 154,1 162,21 196,43 33,22 -61,-207 -146,-231 -12,-3 -24,-6 -35,-7 35,-15 66,-44 77,-100 31,-151 52,-155 81,-183 28,-29 -216,18 -255,97 -7,13 -12,25 -16,37z"/>
    <path class="fil1" d="M1799 724c0,0 26,-61 16,-121 -9,-61 -8,-58 2,-76 0,0 -28,17 -9,78 18,62 -9,119 -9,119z"/>
    <path class="fil1" d="M2127 561c0,0 -40,-57 -98,-58 -58,-2 -80,-23 -83,-31 0,0 20,40 94,39 65,-1 93,67 87,50z"/>
    <path class="fil1" d="M1969 348c0,0 55,-29 65,-76 11,-46 20,-77 49,-88 0,0 -40,11 -43,88 -3,78 -76,83 -90,89 -13,7 19,-13 19,-13z"/>
    <path class="fil1" d="M1815 273c0,0 -6,-58 -34,-93 -29,-35 -40,-44 -45,-57 -5,-13 1,9 29,32 28,22 45,55 50,118z"/>
    <path class="fil1" d="M1740 414c0,0 -49,-14 -90,2 -41,15 -79,13 -84,12 -6,0 54,-6 69,-14 15,-8 50,-17 105,0z"/>
   </g>
   <polygon class="fil2" points="2412,233 2224,233 2224,122 2738,122 2738,233 2549,233 2549,712 2412,712 "/>
   <polygon class="fil2" points="1216,122 1353,122 1353,600 1649,600 1649,712 1216,712 "/>
   <polygon class="fil2" points="537,712 536,358 362,649 301,649 128,365 128,712 0,712 0,122 113,122 334,488 551,122 663,122 665,712 "/>
   <polygon class="fil2" points="1173,602 1173,712 716,712 716,122 1162,122 1162,231 852,231 852,359 1126,359 1126,466 852,466 852,602 "/>
   <polygon class="fil2" points="2791,122 2928,122 2928,712 2791,712 "/>
  </g>
 </g>
</svg>
