<?xml version="1.0" encoding="UTF-8"?>
<!DOCTYPE svg PUBLIC "-//W3C//DTD SVG 1.1//EN" "http://www.w3.org/Graphics/SVG/1.1/DTD/svg11.dtd">
<!-- Creator: CorelDRAW X7 -->
<svg xmlns="http://www.w3.org/2000/svg" xml:space="preserve" width="269.494mm" height="269.494mm" version="1.1" style="shape-rendering:geometricPrecision; text-rendering:geometricPrecision; image-rendering:optimizeQuality; fill-rule:evenodd; clip-rule:evenodd"
viewBox="0 0 6348924 6348924"
 xmlns:xlink="http://www.w3.org/1999/xlink">
 <defs>
  <style type="text/css">
   <![CDATA[
    .fil2 {fill:#CCCCCC}
    .fil0 {fill:white}
    .fil1 {fill:url(#id0)}
   ]]>
  </style>
  <radialGradient id="id0" gradientUnits="userSpaceOnUse" gradientTransform="matrix(1.17224 -0.309688 0.315077 1.19264 -1.50454E+006 433013)" cx="3.25999e+006" cy="2.99301e+006" r="1.81454e+006" fx="3.25999e+006" fy="2.99301e+006">
   <stop offset="0" style="stop-opacity:1; stop-color:#FFCC00"/>
   <stop offset="0.270588" style="stop-opacity:1; stop-color:#FBF4D6"/>
   <stop offset="0.2" style="stop-opacity:1; stop-color:#FEE57F"/>
   <stop offset="1" style="stop-opacity:1; stop-color:#FEFEFE"/>
  </radialGradient>
 </defs>
 <g id="Layer_x0020_1">
  <metadata id="CorelCorpID_0Corel-Layer"/>
  <g id="_1640336610416">
   <circle class="fil0" cx="3174462" cy="3174462" r="3174462"/>
   <g>
    <path class="fil1" d="M3666709 2353729c14816,-236590 -61232,-496480 -373017,-681727 -727687,-432361 -706774,-547758 -803970,-745875 -97196,-198114 -294298,1144366 44881,1492744 54437,55917 109136,106135 163611,151282 -190135,-54093 -412068,-36956 -645466,143364 -669827,517495 -769426,455585 -989413,473042 -219979,17464 955745,694798 1404503,507643 70403,-29364 135851,-60954 196694,-94145 -133971,179451 -205903,422706 -72264,734889 333103,778143 248205,859049 209976,1076387 -38231,217338 912152,-751100 843439,-1232442 -11645,-81584 -27265,-158213 -45975,-230135 116703,162743 303617,288905 602895,289588 846445,1932 887156,111908 1071637,233007 184484,121096 -328940,-1134885 -798196,-1262213 -64923,-17615 -127858,-31491 -188743,-42130 190300,-79725 359949,-238640 421837,-541869 169274,-829343 285129,-847511 440317,-1004403 155185,-156894 -1177527,98033 -1395129,532841 -34210,68356 -63189,135154 -87617,200152z"/>
    <path class="fil2" d="M3022899 4862208c0,0 140926,-331748 89132,-660922 -51796,-329176 -44429,-317934 8906,-415542 0,0 -149268,92180 -49445,428455 99822,336271 -48593,648009 -48593,648009z"/>
    <path class="fil2" d="M4815086 3975603c0,0 -214447,-312586 -533083,-320716 -318636,-8132 -436635,-122010 -453771,-170235 0,0 108631,221160 512111,216370 357129,-4236 511789,364813 474743,274581z"/>
    <path class="fil2" d="M3952497 2806817c0,0 300953,-158628 357385,-410904 56435,-252275 107748,-424075 267763,-483933 0,0 -219821,58075 -235316,481954 -15494,423882 -417160,450874 -490887,487936 -73727,37060 101055,-75053 101055,-75053z"/>
    <path class="fil2" d="M3111103 2400576c0,0 -31571,-319143 -187713,-510863 -156142,-191719 -215027,-239898 -242786,-311686 -27757,-71791 4813,51473 157968,173653 153157,122178 247321,303900 272531,648896z"/>
    <path class="fil2" d="M2698678 3168888c0,0 -265921,-74808 -489507,10634 -223586,85443 -429965,69635 -460895,69015 -30930,-619 294368,-33809 377283,-77691 82914,-43885 276576,-92850 573119,-1958z"/>
   </g>
  </g>
 </g>
</svg>
