<?xml version="1.0" encoding="UTF-8"?>
<!DOCTYPE svg PUBLIC "-//W3C//DTD SVG 1.1//EN" "http://www.w3.org/Graphics/SVG/1.1/DTD/svg11.dtd">
<!-- Creator: CorelDRAW X7 -->
<svg xmlns="http://www.w3.org/2000/svg" xml:space="preserve" width="26.9285mm" height="20.1095mm" version="1.1" style="shape-rendering:geometricPrecision; text-rendering:geometricPrecision; image-rendering:optimizeQuality; fill-rule:evenodd; clip-rule:evenodd"
viewBox="0 0 53013 39588"
 xmlns:xlink="http://www.w3.org/1999/xlink">
 <defs>
  <style type="text/css">
   <![CDATA[
    .str1 {stroke:#332C2B;stroke-width:166.547}
    .str0 {stroke:#332C2B;stroke-width:333.291}
    .str2 {stroke:#332C2B;stroke-width:393.729}
    .str3 {stroke:#332C2B;stroke-width:499.839}
    .fil2 {fill:none}
    .fil1 {fill:#332C2B}
    .fil0 {fill:#332C2B;fill-rule:nonzero}
    .fil3 {fill:url(#id0)}
   ]]>
  </style>
  <radialGradient id="id0" gradientUnits="userSpaceOnUse" gradientTransform="matrix(0.999997 -0 -0 0.999997 0 0)" cx="25990.6" cy="9335.31" r="5550.2" fx="25990.6" fy="9335.31">
   <stop offset="0" style="stop-opacity:1; stop-color:#FFCC00"/>
   <stop offset="0.431373" style="stop-opacity:1; stop-color:#FBF4D6"/>
   <stop offset="0.529412" style="stop-opacity:1; stop-color:#FECF00"/>
   <stop offset="1" style="stop-opacity:1; stop-color:#FDD100"/>
  </radialGradient>
 </defs>
 <g id="Layer_x0020_1">
  <metadata id="CorelCorpID_0Corel-Layer"/>
  <g id="_1766445231744">
   <g>
    <path class="fil0 str0" d="M7473 35015c80,-711 302,-1434 660,-2123l0 0c343,-660 812,-1288 1401,-1845l0 -1c998,-942 2185,-1528 3362,-1743 1209,-222 2409,-52 3388,522l98 57 -13 112c-80,713 -302,1436 -660,2123 -343,661 -812,1290 -1401,1846 -999,942 -2185,1528 -3362,1743 -1209,222 -2409,52 -3388,-522l-98 -57 13 -112zm967 -1963c-318,612 -523,1254 -609,1889 889,487 1965,625 3053,425 1112,-203 2236,-760 3186,-1656 560,-529 1006,-1126 1331,-1753 319,-613 524,-1255 609,-1889 -888,-486 -1964,-624 -3052,-425 -1112,204 -2237,760 -3186,1656l0 0c-560,528 -1005,1126 -1331,1753l-1 0z"/>
    <path class="fil0 str1" d="M7102 35331c-90,-540 -289,-1083 -590,-1594l0 0c-289,-490 -672,-951 -1145,-1352l0 0c-801,-679 -1731,-1078 -2638,-1195 -932,-120 -1841,58 -2565,536l-73 48 15 85c90,541 289,1084 590,1594 288,491 672,952 1145,1352 800,679 1730,1078 2637,1195 933,120 1842,-58 2566,-536l72 -48 -14 -85zm-818 -1460c268,455 450,937 541,1419 -658,407 -1474,556 -2313,448 -858,-110 -1739,-489 -2500,-1135 -449,-381 -814,-819 -1088,-1284 -268,-456 -451,-938 -542,-1418 659,-408 1475,-557 2313,-449 858,111 1739,489 2500,1135l1 0c449,381 813,819 1088,1285l0 -1z"/>
    <path class="fil0 str0" d="M5546 27391c36,-457 -17,-938 -159,-1415l1 0c-136,-456 -355,-908 -659,-1330l0 0c-514,-714 -1190,-1225 -1904,-1503 -734,-285 -1510,-324 -2195,-81l-68 24 -6 72c-35,458 17,940 159,1416 136,457 355,909 659,1330 514,713 1190,1225 1904,1503 734,285 1509,323 2194,80l69 -24 5 -72zm-371 -1352c126,424 178,853 155,1263 -618,198 -1311,155 -1972,-102 -675,-262 -1315,-748 -1804,-1426 -289,-401 -497,-830 -626,-1264 -127,-424 -178,-853 -155,-1262 617,-199 1311,-155 1971,101 676,263 1316,748 1805,1427l0 0c288,400 496,830 626,1263l0 0z"/>
    <polygon class="fil1 str2" points="7842,38788 7429,31772 5350,27270 7003,31749 6791,38783 6894,38788 2264,38788 2264,39392 52054,39392 52054,38788 47917,38788 47525,32792 45559,28605 47128,32773 46984,38788 35714,38788 35282,31456 33089,26706 34833,31432 34611,38788 21391,38788 20931,31749 18654,26900 20471,31727 20303,38788 "/>
    <g>
     <line class="fil2 str1" x1="6640" y1="30632" x2="8436" y2= "27783" />
     <path class="fil0 str1" d="M8344 27922c33,-223 110,-448 230,-662l0 0c115,-204 269,-397 460,-566l1 0c324,-286 703,-458 1076,-514 383,-56 759,9 1061,200l30 20 -5 35c-33,223 -110,448 -230,661 -115,204 -269,397 -460,566 -325,286 -704,458 -1077,514 -383,57 -759,-9 -1061,-200l-30 -19 5 -35zm325 -608c-107,189 -178,389 -211,588 274,163 612,217 956,166 352,-52 712,-216 1020,-488 182,-160 329,-344 438,-538 107,-189 178,-389 211,-588 -274,-162 -611,-217 -956,-166 -352,53 -712,216 -1020,488l0 0c-182,161 -329,344 -438,538l0 0z"/>
     <path class="fil0 str1" d="M7578 25678c150,47 297,126 430,232l0 0c128,101 244,229 339,379l0 1c161,254 237,535 234,798 -3,269 -90,521 -255,708l-17 18 -23 -7c-150,-47 -297,-126 -430,-232 -128,-101 -243,-229 -339,-379 -161,-255 -237,-536 -234,-798 3,-270 91,-522 256,-709l16 -18 23 7zm383 291c-119,-94 -248,-165 -382,-210 -142,171 -217,397 -220,640 -3,248 70,514 223,756 90,143 200,264 322,361 118,94 248,165 381,211 142,-171 217,-397 220,-640 3,-249 -69,-514 -223,-757l1 0c-91,-143 -201,-264 -322,-360l0 -1z"/>
    </g>
    <path class="fil0 str0" d="M21006 35588c52,-487 200,-982 443,-1455l-1 -1c232,-453 550,-885 951,-1269l0 0c680,-650 1490,-1056 2294,-1209 827,-156 1649,-46 2322,343l67 39 -8 77c-52,487 -201,983 -443,1456 -232,453 -550,886 -951,1269 -679,650 -1489,1056 -2294,1209 -827,157 -1649,46 -2321,-343l-67 -39 8 -77zm653 -1348c-215,421 -352,861 -408,1296 610,330 1347,419 2091,278 761,-144 1528,-530 2174,-1148 381,-364 684,-775 904,-1205 216,-422 353,-862 408,-1297 -610,-328 -1347,-418 -2091,-277 -760,144 -1528,530 -2174,1147l0 0c-381,365 -683,776 -903,1206l-1 0z"/>
    <path class="fil0 str0" d="M20614 35813c-70,-403 -222,-808 -450,-1189l1 0c-219,-365 -508,-708 -863,-1006l0 0c-602,-504 -1299,-798 -1978,-881 -698,-85 -1377,53 -1916,413l-54 36 11 64c70,404 221,809 449,1189 218,365 507,709 863,1006 601,504 1299,798 1978,881 697,85 1377,-53 1916,-414l54 -36 -11 -63zm-619 -1088c202,339 341,699 411,1058 -490,308 -1100,423 -1727,347 -642,-79 -1303,-358 -1875,-837 -338,-283 -613,-609 -820,-956 -203,-339 -342,-698 -412,-1057 490,-308 1100,-423 1728,-347 642,79 1303,358 1875,837l0 0c337,283 612,608 819,955l1 0z"/>
    <path class="fil0 str0" d="M18793 27022c21,-284 -14,-583 -104,-878l0 0c-86,-284 -224,-563 -414,-824l0 0c-323,-441 -744,-756 -1189,-926 -457,-174 -939,-195 -1363,-41l-43 15 -3 45c-20,284 14,583 104,878 86,283 224,563 415,824 322,441 744,756 1189,926 456,174 938,195 1363,41l42 -16 3 -44zm-236 -838c81,262 114,529 101,783 -382,126 -813,102 -1224,-55 -421,-160 -820,-460 -1127,-879 -181,-247 -312,-513 -394,-782 -80,-263 -114,-529 -101,-784 383,-126 814,-101 1225,55 420,161 820,460 1126,879l0 0c181,248 312,514 394,783l0 0z"/>
    <g>
     <line class="fil2 str1" x1="20071" y1="30523" x2="21991" y2= "27433" />
     <path class="fil0 str1" d="M21893 27583c34,-241 116,-485 244,-716l0 0c123,-221 288,-430 493,-614l1 -1c348,-311 757,-499 1159,-562 413,-64 820,5 1147,209l33 20 -5 38c-34,242 -116,485 -244,716 -123,222 -288,431 -493,615 -349,311 -758,500 -1160,562 -413,65 -820,-4 -1148,-208l-32 -21 5 -38zm347 -659c-114,206 -189,422 -224,638 297,173 662,230 1034,172 380,-59 768,-238 1099,-534 195,-175 352,-374 469,-584 114,-206 189,-422 224,-637 -297,-174 -662,-231 -1034,-173 -380,59 -768,238 -1099,534l0 0c-195,175 -352,374 -469,585l0 -1z"/>
     <path class="fil0 str1" d="M21051 25165c162,50 321,134 465,247l0 0c139,109 265,246 369,408l0 0c176,274 260,577 259,861 -2,291 -94,563 -271,766l-18 21 -25 -8c-163,-50 -322,-134 -466,-247 -139,-109 -265,-247 -369,-408 -176,-275 -260,-577 -258,-861 1,-291 94,-564 270,-767l18 -20 26 8zm415 312c-129,-101 -270,-177 -414,-225 -152,185 -232,430 -233,693 -2,268 78,555 245,815 99,154 219,284 351,388 128,101 269,177 413,225 152,-186 232,-431 233,-693 2,-268 -78,-555 -245,-816l0 0c-99,-153 -219,-283 -350,-387l0 0z"/>
    </g>
    <path class="fil0 str0" d="M35328 34878c85,-750 319,-1513 697,-2239l0 -1c361,-696 856,-1359 1478,-1946l0 -1c1053,-994 2306,-1613 3547,-1840 1276,-234 2542,-54 3575,551l103 61 -13 118c-85,751 -319,1514 -696,2240 -362,696 -857,1360 -1479,1947 -1054,994 -2305,1612 -3547,1840 -1276,233 -2542,54 -3575,-551l-103 -61 13 -118zm1021 -2072c-336,647 -552,1324 -642,1995 937,513 2072,658 3220,448 1174,-215 2360,-802 3362,-1748 591,-558 1061,-1188 1405,-1849 336,-647 552,-1324 642,-1994 -937,-513 -2072,-658 -3220,-448 -1174,215 -2360,802 -3362,1747l0 0c-591,558 -1061,1188 -1405,1850l0 -1z"/>
    <path class="fil0 str0" d="M34937 35212c-95,-570 -305,-1143 -623,-1682l1 0c-305,-517 -710,-1003 -1208,-1427l-1 0c-844,-716 -1825,-1138 -2783,-1261 -983,-126 -1943,62 -2706,566l-77 51 15 89c95,571 305,1144 622,1682 305,518 710,1004 1209,1427 844,716 1825,1137 2783,1261 983,126 1943,-62 2707,-566l76 -51 -15 -89zm-863 -1541c283,480 475,989 571,1497 -695,430 -1556,587 -2441,473 -905,-117 -1834,-517 -2637,-1198 -474,-402 -859,-864 -1148,-1355 -284,-480 -476,-988 -572,-1496 695,-430 1556,-587 2441,-473 905,116 1834,516 2638,1197l0 0c473,402 858,865 1147,1355l1 0z"/>
    <path class="fil0 str0" d="M33296 26834c37,-482 -18,-990 -168,-1493l0 0c-143,-482 -374,-959 -695,-1403l0 0c-542,-753 -1255,-1293 -2009,-1586 -774,-301 -1592,-342 -2315,-85l-73 25 -5 76c-38,483 17,991 167,1493 144,482 375,960 695,1404 543,752 1256,1293 2009,1586 775,301 1593,341 2316,85l72 -26 6 -76zm-392 -1426c133,447 187,899 163,1331 -651,210 -1383,164 -2080,-106 -712,-277 -1388,-790 -1904,-1505 -304,-423 -524,-876 -660,-1333 -134,-448 -188,-900 -164,-1332 652,-210 1384,-164 2080,107 713,277 1388,789 1904,1505l0 0c304,422 524,875 661,1333l0 0z"/>
    <g>
     <line class="fil2 str1" x1="34449" y1="30254" x2="36344" y2= "27248" />
     <path class="fil0 str1" d="M36247 27394c35,-235 117,-473 243,-698l0 0c121,-215 284,-419 486,-597l0 0c342,-302 743,-484 1136,-542 404,-60 801,9 1119,211l32 20 -5 37c-35,236 -116,473 -243,698 -121,215 -284,419 -486,597 -342,302 -742,484 -1136,542 -404,60 -800,-9 -1119,-211l-32 -20 5 -37zm343 -642c-112,201 -187,412 -223,622 290,171 646,229 1009,174 372,-55 752,-227 1077,-514 192,-170 347,-363 462,-568 112,-200 187,-411 223,-621 -290,-171 -646,-229 -1009,-174 -372,55 -752,227 -1077,514l0 0c-192,170 -346,363 -461,568l-1 -1z"/>
     <path class="fil0 str1" d="M35440 25027c158,50 312,132 453,244l0 0c135,108 257,242 357,401l1 0c170,269 250,565 247,842 -4,285 -96,550 -270,747l-17 20 -25 -8c-158,-50 -313,-133 -453,-245 -135,-107 -257,-241 -358,-400 -170,-269 -250,-565 -247,-842 4,-285 96,-550 270,-747l17 -20 25 8zm403 307c-125,-100 -262,-175 -402,-222 -151,180 -230,419 -233,675 -3,262 74,542 235,798 96,151 212,279 340,381 125,99 262,175 402,222 150,-180 230,-419 233,-675 3,-262 -74,-542 -235,-798l0 0c-96,-151 -212,-279 -340,-381l0 0z"/>
    </g>
    <path class="fil0 str0" d="M47589 36107c45,-421 173,-849 383,-1257l-1 -1c200,-391 475,-764 821,-1095l0 -1c587,-560 1286,-911 1981,-1043 714,-135 1423,-40 2004,296l58 34 -7 66c-45,421 -173,849 -382,1257 -200,391 -475,765 -821,1096 -587,561 -1286,911 -1981,1043 -713,136 -1423,40 -2004,-296l-58 -33 7 -66zm564 -1164c-186,363 -304,743 -352,1119 527,284 1163,361 1805,239 657,-124 1319,-457 1877,-990 329,-315 591,-670 781,-1041 186,-364 304,-744 352,-1120 -526,-283 -1163,-361 -1805,-239 -657,125 -1319,458 -1877,991l0 -1c-329,315 -590,670 -780,1042l-1 0z"/>
    <path class="fil0 str0" d="M47251 36300c-61,-347 -192,-697 -388,-1026l0 0c-188,-315 -438,-611 -745,-868l0 -1c-519,-435 -1121,-689 -1708,-760 -602,-74 -1188,45 -1654,357l-46 31 9 55c60,348 191,698 387,1027 189,315 439,611 746,868 519,435 1121,689 1708,760 602,74 1188,-45 1654,-357l46 -31 -9 -55zm-535 -939c175,293 295,603 356,914 -424,265 -950,365 -1492,299 -554,-68 -1124,-309 -1619,-723 -291,-244 -529,-525 -708,-824 -175,-293 -294,-603 -355,-914 423,-265 950,-365 1492,-299 554,68 1124,309 1618,723l0 0c292,244 529,525 708,824l0 0z"/>
    <path class="fil0 str0" d="M45679 28711c18,-246 -12,-504 -90,-759l0 0c-74,-244 -193,-486 -358,-711l0 0c-278,-381 -642,-653 -1026,-799 -395,-151 -811,-169 -1177,-36l-37 13 -3 39c-17,245 13,504 90,758 75,245 194,487 358,711 279,381 643,653 1027,800 394,150 810,168 1177,35l36 -13 3 -38zm-204 -724c70,227 99,456 88,676 -331,109 -703,88 -1058,-47 -363,-139 -708,-397 -972,-759 -157,-214 -270,-443 -341,-676 -69,-227 -98,-456 -87,-676 330,-109 703,-88 1058,48 363,138 708,396 972,758l0 0c156,214 269,444 340,676l0 0z"/>
    <g>
     <line class="fil2 str1" x1="46782" y1="31733" x2="48440" y2= "29066" />
     <path class="fil0 str1" d="M48355 29195c30,-208 100,-418 211,-618l0 0c106,-191 248,-372 426,-531l0 0c300,-269 654,-431 1001,-485 357,-56 708,4 991,180l28 17 -5 33c-29,209 -100,419 -210,618 -106,192 -249,373 -426,531 -301,269 -654,432 -1001,486 -357,55 -708,-4 -991,-180l-28 -18 4 -33zm300 -569c-99,178 -164,365 -194,550 257,150 572,199 893,150 328,-52 663,-206 949,-462 168,-151 304,-322 405,-504 98,-177 163,-365 193,-550 -256,-150 -571,-199 -892,-149 -329,51 -663,206 -949,461l0 0c-169,151 -304,323 -405,504l0 0z"/>
     <path class="fil0 str1" d="M47628 27107c140,44 277,116 402,214l0 0c120,94 229,212 318,352l0 0c152,237 225,498 224,743 -2,252 -82,487 -234,662l-16 17 -22 -7c-140,-43 -277,-115 -402,-213 -120,-94 -228,-212 -318,-352 -152,-237 -224,-498 -223,-743 1,-252 81,-487 234,-662l15 -17 22 6zm358 270c-111,-88 -232,-153 -357,-195 -132,161 -200,372 -201,599 -2,231 68,478 212,704 85,132 188,245 302,334 111,88 233,153 357,194 132,-160 201,-371 202,-598 1,-231 -68,-479 -213,-704l0 0c-85,-132 -188,-245 -302,-334l0 0z"/>
    </g>
   </g>
   <g>
    <path class="fil3" d="M25991 3785c3065,0 5550,2485 5550,5550 0,3066 -2485,5551 -5550,5551 -3066,0 -5551,-2485 -5551,-5551 0,-3065 2485,-5550 5551,-5550z"/>
    <path class="fil2 str3" d="M30532 1062l62 -181c-124,330 -193,687 -193,1061 0,1644 1322,2976 2953,2976 402,0 785,-80 1134,-227l4 8c-917,505 -1540,1486 -1540,2614 0,1524 1137,2780 2603,2955l-14 108c-64,-4 -129,-7 -194,-7 -1631,0 -2953,1333 -2953,2977 0,801 314,1529 825,2064l-58 64c-418,-229 -897,-359 -1406,-359 -1612,0 -2922,1301 -2953,2918 -487,-968 -1484,-1631 -2635,-1631 -1135,0 -2120,646 -2614,1592l-102 -34c2,-37 3,-73 3,-110 0,-1644 -1323,-2976 -2954,-2976 -411,0 -802,85 -1157,237 327,-479 519,-1059 519,-1685 0,-1485 -1080,-2716 -2491,-2939 598,-545 974,-1333 974,-2209 0,-727 -259,-1392 -688,-1909 1349,-276 2364,-1477 2364,-2917 0,-161 -12,-318 -37,-471 484,347 1075,551 1713,551 1631,0 2954,-1332 2954,-2976 0,-175 -15,-347 -44,-513l37 314c86,1566 1609,2470 3043,2470 1435,0 2446,-598 2845,-1765z"/>
   </g>
  </g>
 </g>
</svg>
