<?xml version="1.0" encoding="UTF-8"?>
<!DOCTYPE svg PUBLIC "-//W3C//DTD SVG 1.1//EN" "http://www.w3.org/Graphics/SVG/1.1/DTD/svg11.dtd">
<!-- Creator: CorelDRAW X7 -->
<svg xmlns="http://www.w3.org/2000/svg" xml:space="preserve" width="9.1638mm" height="9.186mm" version="1.1" style="shape-rendering:geometricPrecision; text-rendering:geometricPrecision; image-rendering:optimizeQuality; fill-rule:evenodd; clip-rule:evenodd"
viewBox="0 0 5885 5900"
 xmlns:xlink="http://www.w3.org/1999/xlink">
 <defs>
  <style type="text/css">
   <![CDATA[
    .str0 {stroke:#332C2B;stroke-width:217.46}
    .fil0 {fill:none}
    .fil1 {fill:#332C2B}
    .fil2 {fill:#332C2B;fill-rule:nonzero}
   ]]>
  </style>
 </defs>
 <g id="Layer_x0020_1">
  <metadata id="CorelCorpID_0Corel-Layer"/>
  <g id="_1766449155152">
   <path class="fil0 str0" d="M286 1780l2209 0c-22,-39 -39,-81 -53,-125 -120,-373 86,-772 459,-891 373,-120 772,86 891,459 62,193 37,392 -53,557l1861 0c97,0 177,79 177,177l0 3657c0,97 -80,177 -177,177l-5314 0c-98,0 -177,-80 -177,-177l0 -3657c0,-98 79,-177 177,-177z"/>
   <path class="fil0 str0" d="M5777 3240l-1321 0c-72,0 -131,59 -131,131l0 829c0,72 59,130 131,130l1321 0 0 -1090z"/>
   <circle class="fil1" cx="4833" cy="3785" r="310"/>
   <polygon class="fil0 str0" points="570,897 4949,126 5240,1780 725,1780 "/>
   <path class="fil2" d="M3569 1485c20,64 22,124 5,179 -16,55 -51,105 -104,147 -53,43 -116,-40 -203,-12 -83,26 -173,24 -240,17 -68,-6 -67,-7 -107,-36 -40,-29 -115,52 -127,13 -8,-25 -6,-50 6,-74 13,-24 33,-40 60,-49 25,-7 45,-7 62,0 17,8 34,21 53,38 37,34 75,56 115,66 39,10 88,5 145,-13 46,-15 80,-37 103,-67 24,-30 31,-59 22,-85 -13,-41 -38,-66 -74,-75 -37,-9 -93,-10 -169,-5 -86,6 -158,6 -215,0 -56,-5 -106,-22 -147,-48 -41,-26 -70,-65 -87,-117 -15,-46 -15,-94 -1,-144 15,-51 45,-96 91,-138 46,-42 107,-75 184,-100 60,-19 116,-30 167,-33 52,-3 97,1 135,12 39,11 71,26 96,46 24,20 41,42 49,67 8,26 6,51 -6,74 -13,22 -35,39 -68,49 -24,8 -46,8 -67,0 -21,-9 -47,-23 -77,-43 -25,-17 -51,-29 -79,-35 -28,-6 -62,-2 -103,11 -42,13 -74,33 -96,60 -22,26 -28,53 -20,80 8,24 24,41 50,50 25,9 56,13 94,12 38,-1 89,-3 154,-8 78,-6 143,-3 196,6 54,10 97,28 131,54 34,25 58,59 72,101z"/>
   <path class="fil1" d="M2931 858l0 0c56,-18 117,14 135,70l262 821 6 47c7,59 -24,25 -80,6l-22 -7c-56,-18 -61,54 -94,5l-35 -51 -241 -756c-18,-56 13,-117 69,-135z"/>
  </g>
 </g>
</svg>
