<?xml version="1.0" encoding="UTF-8"?>
<!DOCTYPE svg PUBLIC "-//W3C//DTD SVG 1.1//EN" "http://www.w3.org/Graphics/SVG/1.1/DTD/svg11.dtd">
<!-- Creator: CorelDRAW X7 -->
<svg xmlns="http://www.w3.org/2000/svg" xml:space="preserve" width="8.275mm" height="8.3762mm" version="1.1" style="shape-rendering:geometricPrecision; text-rendering:geometricPrecision; image-rendering:optimizeQuality; fill-rule:evenodd; clip-rule:evenodd"
viewBox="0 0 4332 4385"
 xmlns:xlink="http://www.w3.org/1999/xlink">
 <defs>
  <style type="text/css">
   <![CDATA[
    .fil1 {fill:none}
    .fil0 {fill:none;fill-rule:nonzero}
   ]]>
  </style>
 </defs>
 <g id="Layer_x0020_1">
  <metadata id="CorelCorpID_0Corel-Layer"/>
  <g id="_1640343674432">
   <path class="fil0" d="M1963 3221c21,-189 81,-381 176,-564l0 0c91,-176 216,-343 372,-491l0 0c266,-251 581,-406 894,-464 322,-59 641,-13 901,139l26 15 -3 30c-21,190 -80,382 -175,565 -92,175 -216,343 -373,491 -266,250 -581,406 -894,463 -322,59 -641,14 -901,-139l-26 -15 3 -30zm257 -522c-84,163 -139,334 -161,503 236,129 522,166 811,113 296,-54 595,-202 848,-441 149,-140 267,-299 354,-466 85,-163 139,-334 162,-502 -237,-130 -523,-166 -812,-113 -296,54 -595,202 -847,440l0 0c-149,141 -268,300 -354,466l-1 0z"/>
   <path class="fil0" d="M1865 3306c-24,-144 -77,-288 -157,-424l0 0c-77,-131 -179,-253 -305,-360l0 0c-213,-181 -460,-287 -701,-318 -248,-32 -490,16 -683,143l-19 13 4 22c24,144 77,288 157,424 77,131 179,253 304,360 213,180 460,286 702,317 248,32 490,-15 682,-142l19 -13 -3 -22zm-218 -389c71,121 120,249 144,377 -175,109 -392,148 -615,120 -228,-30 -463,-130 -665,-302 -120,-101 -217,-218 -289,-342 -72,-121 -120,-249 -145,-377 176,-108 393,-148 616,-119 228,29 462,130 664,302l1 0c119,101 216,218 289,341l0 0z"/>
   <path class="fil0" d="M1451 1194c9,-122 -5,-250 -43,-376l1 0c-37,-122 -95,-242 -176,-354l0 0c-136,-190 -316,-326 -506,-400 -195,-76 -401,-86 -584,-21l-18 6 -1 19c-10,122 4,250 42,377 36,121 94,241 175,353 137,190 317,326 507,400 195,76 401,86 583,21l18 -6 2 -19zm-99 -360c34,113 47,227 41,336 -164,53 -349,41 -524,-27 -180,-70 -350,-199 -480,-379 -77,-107 -132,-221 -166,-336 -34,-113 -48,-227 -42,-336 165,-53 349,-41 525,27 179,70 349,199 479,379l1 0c76,107 132,221 166,336l0 0z"/>
   <polygon class="fil1" points="2061,4225 1951,2359 1399,1162 1838,2353 1782,4223 1809,4225 578,4225 578,4385 3292,4385 3292,4225 "/>
   <line class="fil1" x1="1742" y1="2056" x2="2219" y2= "1298" />
   <path class="fil0" d="M2195 1335c9,-59 29,-119 61,-176l0 0c31,-54 72,-105 122,-150l0 0c87,-77 188,-122 287,-137 102,-15 202,2 282,53l8 5 -1 10c-9,59 -30,119 -62,175 -30,55 -71,106 -122,151 -86,76 -187,122 -286,137 -102,15 -202,-3 -283,-54l-8 -5 2 -9zm86 -162c-28,51 -47,104 -56,157 73,43 163,58 254,44 94,-14 190,-57 272,-130 48,-42 87,-91 116,-143 29,-50 47,-103 56,-156 -73,-43 -162,-58 -254,-44 -94,14 -189,57 -271,129l0 0c-49,43 -88,92 -117,143l0 0z"/>
   <path class="fil0" d="M1991 738c40,13 79,34 114,62l1 0c34,27 64,61 90,101l0 0c42,68 63,142 62,212 -1,72 -24,139 -68,189l-4 4 -7 -2c-40,-12 -78,-33 -114,-61 -34,-27 -65,-61 -90,-101 -43,-68 -63,-142 -62,-212 1,-72 24,-139 68,-189l4 -5 6 2zm102 78c-32,-25 -66,-44 -102,-56 -37,45 -57,105 -58,170 -1,66 18,137 59,201 24,38 53,70 86,96 31,25 66,44 101,56 38,-45 58,-105 59,-170 0,-66 -19,-137 -60,-201l1 0c-25,-38 -54,-70 -86,-96l0 0z"/>
  </g>
 </g>
</svg>
