<?xml version="1.0" encoding="UTF-8"?>
<!DOCTYPE svg PUBLIC "-//W3C//DTD SVG 1.1//EN" "http://www.w3.org/Graphics/SVG/1.1/DTD/svg11.dtd">
<!-- Creator: CorelDRAW X7 -->
<svg xmlns="http://www.w3.org/2000/svg" xml:space="preserve" width="8.4667mm" height="8.7568mm" version="1.1" style="shape-rendering:geometricPrecision; text-rendering:geometricPrecision; image-rendering:optimizeQuality; fill-rule:evenodd; clip-rule:evenodd"
viewBox="0 0 4767 4930"
 xmlns:xlink="http://www.w3.org/1999/xlink">
 <defs>
  <style type="text/css">
   <![CDATA[
    .fil0 {fill:none;fill-rule:nonzero}
   ]]>
  </style>
 </defs>
 <g id="Layer_x0020_1">
  <metadata id="CorelCorpID_0Corel-Layer"/>
  <path class="fil0" d="M4365 2079l0 2741c0,30 -13,58 -33,78l0 0c-20,20 -48,32 -78,32l-3741 0c-30,0 -58,-12 -78,-32 -20,-20 -32,-48 -32,-78l0 -2734 -287 278c-27,26 -71,25 -97,-2l0 0c-26,-27 -25,-70 2,-96l2312 -2240 1 -1 4 -4 0 0c26,-27 69,-28 96,-2l2312 2240c27,26 28,69 2,96l0 0c-26,27 -70,28 -97,2l-286 -278zm-1981 -920c140,0 267,57 359,149l0 0c92,93 149,220 149,360 0,140 -57,267 -149,359 -92,92 -219,149 -359,149 -141,0 -268,-57 -360,-149l0 0c-92,-92 -149,-219 -149,-359 0,-140 57,-267 149,-359l0 -1 0 0c92,-92 219,-149 360,-149zm274 235c-70,-70 -167,-114 -274,-114 -108,0 -205,44 -274,114l-1 0c-70,70 -113,167 -113,274 0,107 43,204 114,274l0 0c69,70 166,114 274,114 107,0 204,-44 274,-114 70,-70 113,-167 113,-274 0,-107 -43,-204 -113,-274l0 0zm-770 1583l992 0c63,0 120,26 161,67l0 0c42,42 67,99 67,162l0 1604 1136 0 0 -2848 -1857 -1799 -1864 1806 0 2841 1136 0 0 -1604c0,-63 26,-120 67,-162l0 0c41,-41 99,-67 162,-67zm1099 1833l0 -1604c0,-30 -12,-57 -31,-76l0 0c-20,-20 -47,-32 -76,-32l-992 0c-30,0 -57,12 -76,32l-1 0c-19,19 -31,46 -31,76l0 1604 1207 0z"/>
 </g>
</svg>
