<?xml version="1.0" encoding="UTF-8"?>
<!DOCTYPE svg PUBLIC "-//W3C//DTD SVG 1.1//EN" "http://www.w3.org/Graphics/SVG/1.1/DTD/svg11.dtd">
<!-- Creator: CorelDRAW X7 -->
<svg xmlns="http://www.w3.org/2000/svg" xml:space="preserve" width="53.4632mm" height="15.1474mm" version="1.1" style="shape-rendering:geometricPrecision; text-rendering:geometricPrecision; image-rendering:optimizeQuality; fill-rule:evenodd; clip-rule:evenodd"
viewBox="0 0 231556 65605"
 xmlns:xlink="http://www.w3.org/1999/xlink">
 <defs>
  <style type="text/css">
   <![CDATA[
    .fil1 {fill:#CCCCCC}
    .fil2 {fill:#FDD100}
    .fil0 {fill:url(#id0)}
   ]]>
  </style>
  <radialGradient id="id0" gradientUnits="userSpaceOnUse" gradientTransform="matrix(1.17227 -0.308853 0.315082 1.18942 -34811 39152)" cx="145678" cy="30834.6" r="24274.3" fx="145678" fy="30834.6">
   <stop offset="0" style="stop-opacity:1; stop-color:#FFCC00"/>
   <stop offset="0.2" style="stop-opacity:1; stop-color:#FEE57F"/>
   <stop offset="0.270588" style="stop-opacity:1; stop-color:#FBF4D6"/>
   <stop offset="1" style="stop-opacity:1; stop-color:#FEFEFE"/>
  </radialGradient>
 </defs>
 <g id="Layer_x0020_1">
  <metadata id="CorelCorpID_0Corel-Layer"/>
  <g id="_1640343684256">
   <g id="_1766426729936">
    <g>
     <path class="fil0" d="M151603 20939c158,-3479 -949,-7196 -5457,-9885 -10518,-6248 -10202,-7908 -11625,-10756 -1344,-2926 -4270,16529 712,21590 711,791 1502,1503 2293,2136 -2689,-791 -5931,-475 -9332,2135 -9648,7433 -11071,6564 -14314,6801 -3164,237 13840,10043 20325,7354 1028,-395 1977,-870 2846,-1344 -1898,2610 -2926,6089 -1028,10597 4824,11230 3559,12416 3006,15580 -554,3163 13206,-10835 12258,-17794 -159,-1187 -396,-2294 -712,-3322 1740,2294 4429,4113 8778,4113 12179,79 12811,1660 15500,3400 2610,1740 -4824,-16370 -11546,-18268 -949,-237 -1898,-475 -2768,-553 2768,-1186 5219,-3480 6089,-7908 2452,-11942 4113,-12258 6406,-14473 2215,-2293 -17082,1424 -20166,7672 -553,1028 -949,1977 -1265,2926l0 -1z"/>
     <path class="fil1" d="M142271 57239c0,0 2056,-4824 1266,-9570 -712,-4824 -633,-4586 158,-6010 0,0 -2215,1344 -712,6168 1424,4904 -711,9412 -711,9412l-1 0z"/>
     <path class="fil1" d="M168210 44348c0,0 -3163,-4508 -7749,-4587 -4587,-158 -6327,-1819 -6564,-2451 0,0 1582,3163 7434,3084 5140,-79 7354,5299 6880,3954l-1 0z"/>
     <path class="fil1" d="M155716 27503c0,0 4349,-2293 5140,-6010 870,-3638 1582,-6090 3875,-6959 0,0 -3163,870 -3401,6959 -237,6168 -6010,6564 -7117,7038 -1028,554 1503,-1028 1503,-1028z"/>
     <path class="fil1" d="M143536 21572c0,0 -474,-4587 -2688,-7355 -2294,-2768 -3164,-3479 -3559,-4507 -396,-1029 79,711 2293,2530 2215,1740 3559,4350 3954,9332z"/>
     <path class="fil1" d="M137605 32723c0,0 -3875,-1107 -7117,157 -3242,1187 -6248,1028 -6643,949 -475,0 4270,-474 5457,-1106 1186,-633 3954,-1345 8303,0z"/>
    </g>
    <polygon class="fil2" points="190749,18409 175881,18409 175881,9630 216531,9630 216531,18409 201584,18409 201584,56289 190749,56289 "/>
    <polygon class="fil2" points="96166,9630 107000,9630 107000,47432 130409,47432 130409,56289 96166,56289 "/>
    <polygon class="fil2" points="42468,56289 42389,28294 28628,51307 23804,51307 10123,28848 10123,56289 0,56289 0,9630 8937,9630 26414,38574 43575,9630 52432,9630 52590,56289 "/>
    <polygon class="fil2" points="92765,47590 92765,56289 56624,56289 56624,9630 91895,9630 91895,18251 67379,18251 67379,28373 89048,28373 89048,36835 67379,36835 67379,47590 "/>
    <polygon class="fil2" points="220722,9630 231556,9630 231556,56289 220722,56289 "/>
   </g>
  </g>
 </g>
</svg>
