<?xml version="1.0" encoding="UTF-8"?>
<!DOCTYPE svg PUBLIC "-//W3C//DTD SVG 1.1//EN" "http://www.w3.org/Graphics/SVG/1.1/DTD/svg11.dtd">
<!-- Creator: CorelDRAW X7 -->
<svg xmlns="http://www.w3.org/2000/svg" xml:space="preserve" width="8.8252mm" height="8.8206mm" version="1.1" style="shape-rendering:geometricPrecision; text-rendering:geometricPrecision; image-rendering:optimizeQuality; fill-rule:evenodd; clip-rule:evenodd"
viewBox="0 0 5486 5483"
 xmlns:xlink="http://www.w3.org/1999/xlink">
 <defs>
  <style type="text/css">
   <![CDATA[
    .fil0 {fill:none}
    .fil1 {fill:none;fill-rule:nonzero}
   ]]>
  </style>
 </defs>
 <g id="Layer_x0020_1">
  <metadata id="CorelCorpID_0Corel-Layer"/>
  <g id="_1640350908272">
   <path class="fil0" d="M171 1601l2138 0c-20,-38 -38,-78 -51,-121 -116,-361 83,-747 444,-863 361,-115 748,84 863,445 60,186 36,379 -51,539l1800 0c95,0 172,77 172,171l0 3540c0,94 -77,171 -172,171l-5143 0c-94,0 -171,-77 -171,-171l0 -3540c0,-94 77,-171 171,-171z"/>
   <path class="fil0" d="M5486 3014l-1278 0c-70,0 -127,57 -127,127l0 802c0,69 57,126 127,126l1278 0 0 -1055z"/>
   <circle class="fil0" cx="4573" cy="3542" r="300"/>
   <polygon class="fil0" points="446,747 4684,0 4966,1601 596,1601 "/>
   <path class="fil1" d="M3349 1316c20,61 21,119 5,173 -16,53 -49,101 -101,142 -51,42 -112,-39 -197,-12 -80,26 -167,23 -232,17 -65,-6 -64,-7 -103,-35 -39,-28 -111,50 -123,13 -8,-25 -6,-49 6,-72 12,-23 31,-39 58,-47 24,-8 44,-8 60,0 16,7 33,19 51,37 36,32 73,53 111,63 39,9 85,5 141,-12 44,-15 78,-37 100,-66 22,-29 29,-56 21,-82 -12,-40 -36,-63 -72,-72 -36,-8 -90,-10 -164,-5 -83,6 -152,6 -207,0 -55,-5 -103,-21 -143,-46 -40,-25 -68,-63 -84,-113 -14,-45 -14,-92 -1,-140 15,-49 44,-93 89,-134 44,-40 103,-73 177,-96 58,-19 112,-30 162,-32 50,-3 94,1 131,11 38,11 68,26 92,45 24,20 40,41 48,65 8,25 6,49 -6,71 -12,22 -34,38 -66,48 -23,7 -44,7 -65,-1 -20,-8 -45,-22 -74,-41 -24,-17 -50,-28 -77,-34 -27,-5 -60,-2 -99,11 -41,12 -72,32 -93,58 -21,25 -28,51 -19,77 7,24 23,40 47,48 25,9 56,13 92,12 36,0 86,-3 149,-7 75,-6 138,-4 190,6 51,9 94,26 127,51 33,25 56,58 69,99z"/>
   <path class="fil0" d="M2732 709l0 0c54,-18 113,13 130,67l254 795 6 46c6,56 -24,24 -78,6l-21 -7c-54,-18 -59,52 -91,4l-34 -49 -234 -732c-17,-54 13,-113 68,-130z"/>
  </g>
 </g>
</svg>
