<?xml version="1.0" encoding="UTF-8"?>
<!DOCTYPE svg PUBLIC "-//W3C//DTD SVG 1.1//EN" "http://www.w3.org/Graphics/SVG/1.1/DTD/svg11.dtd">
<!-- Creator: CorelDRAW X7 -->
<svg xmlns="http://www.w3.org/2000/svg" xml:space="preserve" width="170.472mm" height="180.828mm" version="1.1" style="shape-rendering:geometricPrecision; text-rendering:geometricPrecision; image-rendering:optimizeQuality; fill-rule:evenodd; clip-rule:evenodd"
viewBox="0 0 3463076 3673461"
 xmlns:xlink="http://www.w3.org/1999/xlink">
 <defs>
  <style type="text/css">
   <![CDATA[
    .fil1 {fill:#CCCCCC}
    .fil0 {fill:url(#id0)}
   ]]>
  </style>
  <radialGradient id="id0" gradientUnits="userSpaceOnUse" gradientTransform="matrix(1.17224 -0.309688 0.315076 1.19264 -842589 232168)" cx="1.8008e+006" cy="1.68979e+006" r="1.46938e+006" fx="1.8008e+006" fy="1.68979e+006">
   <stop offset="0" style="stop-opacity:1; stop-color:#FFCC00"/>
   <stop offset="0.270588" style="stop-opacity:1; stop-color:#FBF4D6"/>
   <stop offset="0.2" style="stop-opacity:1; stop-color:#FEE57F"/>
   <stop offset="1" style="stop-opacity:1; stop-color:#FEFEFE"/>
  </radialGradient>
 </defs>
 <g id="Layer_x0020_1">
  <metadata id="CorelCorpID_0Corel-Layer"/>
  <g id="_1640342730336">
   <path class="fil0" d="M2130149 1172117c11998,-191586 -49584,-402042 -302060,-552051 -589269,-350117 -572335,-443564 -651042,-603997 -78707,-160429 -238317,926687 36345,1208799 44083,45279 88375,85945 132488,122505 -153969,-43804 -333684,-29928 -522686,116092 -542415,419059 -623068,368926 -801209,383061 -178136,14143 773945,562635 1137339,411079 57011,-23776 110012,-49356 159279,-76237 -108486,145319 -166734,342302 -58516,595102 269740,630128 200993,695642 170034,871638 -30958,175996 738644,-608228 683002,-998008 -9430,-66065 -22080,-128120 -37228,-186360 94504,131787 245864,233950 488212,234504 685436,1562 718403,90622 867792,188683 149392,98062 -266369,-919009 -646365,-1022116 -52572,-14265 -103535,-25501 -152841,-34116 154103,-64560 291483,-193247 341597,-438794 137075,-671590 230892,-686302 356560,-813350 125667,-127048 -953539,79386 -1129750,431487 -27701,55351 -51170,109443 -70951,162079z"/>
   <path class="fil1" d="M1608804 3203437c0,0 114120,-268643 72178,-535204 -41944,-266558 -35979,-257455 7212,-336498 0,0 -120874,74647 -40040,346954 80836,272310 -39350,524748 -39350,524748z"/>
   <path class="fil1" d="M3060085 2485481c0,0 -173656,-253127 -431683,-259711 -258024,-6584 -353578,-98800 -367455,-137851 0,0 87969,179088 414699,175210 289197,-3429 414437,295419 384439,222352z"/>
   <path class="fil1" d="M2361576 1539019c0,0 243704,-128455 289404,-332743 45700,-204287 87254,-343407 216831,-391878 0,0 -178008,47026 -190556,390277 -12546,343250 -337808,365109 -397511,395120 -59703,30010 81832,-60776 81832,-60776z"/>
   <path class="fil1" d="M1680231 1210052c0,0 -25566,-258435 -152007,-413687 -126442,-155251 -174127,-194265 -196603,-252400 -22478,-58132 3896,41684 127919,140622 124023,98939 200276,246094 220691,525465z"/>
   <path class="fil1" d="M1346256 1832217c0,0 -215340,-60579 -396394,8611 -181056,69192 -348177,56391 -373225,55888 -25048,-502 238374,-27376 305516,-62915 67144,-35536 223969,-75186 464103,-1584z"/>
  </g>
 </g>
</svg>
